<?xml version="1.0" standalone="no"?>
<!DOCTYPE svg PUBLIC "-//W3C//DTD SVG 20010904//EN" "http://www.w3.org/TR/2001/REC-SVG-20010904/DTD/svg10.dtd">
<!-- Created using Krita: https://krita.org -->
<svg xmlns="http://www.w3.org/2000/svg" 
    xmlns:xlink="http://www.w3.org/1999/xlink"
    xmlns:krita="http://krita.org/namespaces/svg/krita"
    xmlns:sodipodi="http://sodipodi.sourceforge.net/DTD/sodipodi-0.dtd"
    width="48pt"
    height="48pt"
    viewBox="0 0 48 48">
<defs/>
<path id="body" transform="translate(5.00365307109934, 2.75691994788169)" fill="#ffffff" fill-rule="evenodd" d="M11.4153 22.3854C12.5204 20.2939 13.0594 18.5964 13.0323 17.293C12.9916 15.338 10.0577 11.7736 7.51028 9.2338C4.96285 6.694 3.82388 6.03299 3.66117 4.00419C3.5527 2.65167 3.75608 1.31694 4.27133 0C1.47136 2.75082 0.0493442 5.38384 0.00527692 7.89907C-0.0608241 11.6719 0.488323 15.7498 1.97814 17.3286C3.46795 18.9074 0.752727 16.6625 0.935776 17.2727C1.11882 17.8829 1.57136 19.104 2.84253 20.1735C3.68998 20.8866 4.08828 21.2431 4.03744 21.2431C2.90525 20.7188 2.47813 20.7188 2.7561 21.2431C3.17304 22.0294 3.88998 23.0311 5.08488 23.6464C5.88149 24.0565 6.67978 24.3887 7.47977 24.643C6.84927 25.4396 6.46962 26.1989 6.3408 26.9209C6.21199 27.6429 6.15267 28.1616 6.16284 28.4768L3.85439 26.6362L5.90352 30.9454C5.64928 31.8895 5.16624 32.6047 4.45438 33.0912C3.74253 33.5776 3.30694 33.8674 3.14762 33.9607L3.38151 39.7953L6.38657 39.986C6.49165 38.8708 6.2747 38.2928 5.73572 38.2521C5.19675 38.2115 4.85946 38.2911 4.72387 38.4911C4.48659 37.142 4.52557 36.3098 4.84082 35.9945C5.15607 35.6793 6.12386 35.0462 7.74418 34.0954L12.6102 38.9004L24.1881 42.9682L25.9118 43.2987L27.0152 44.0207L27.8745 43.3521L28.6168 44.1402L28.7541 43.3648L29.5016 43.4919L29.5982 43.3063L28.2812 41.908L27.3355 41.1326L26.1609 41.8953C25.666 41.4919 25.3931 40.3953 25.3423 38.6055C25.2914 36.8157 25.2796 35.6776 25.3067 35.1912L28.0168 34.9674L28.3982 36.7801C28.8694 37.6598 29.4287 38.4513 30.0761 39.1547C30.7236 39.8581 31.9168 40.7835 33.6558 41.9309L37.2506 42.5538L36.31 40.3903L34.2303 41.1453L33.1422 32.5929C33.9422 31.7675 34.4066 31.0607 34.5354 30.4726C34.6642 29.8844 34.7795 29.0794 34.8812 28.0573C35.3863 27.3523 35.7846 26.7989 36.0761 26.3972C36.3676 25.9955 36.8829 25.5218 37.6218 24.976C37.7405 24.654 37.7049 24.1769 37.515 23.5447C37.3252 22.9125 37.0845 22.1453 36.793 21.2431C37.3763 21.2993 37.7896 21.0712 38.0332 20.5588C38.2767 20.0463 38.4226 19.0934 38.471 17.6998C37.932 18.4354 37.4235 18.7074 36.9456 18.5159C36.4676 18.3244 36.0371 17.9057 35.6541 17.26L35.3541 14.2982C35.5642 11.5355 35.4625 9.42956 35.049 7.98042C34.6354 6.53129 33.4998 4.53216 31.6422 1.98303C30.6727 3.39149 30.0744 4.54656 29.8473 5.44825C29.6202 6.34993 29.5151 7.90076 29.5321 10.1007C29.1897 8.48889 28.7914 7.13721 28.3372 6.0457C27.8829 4.95418 27.1321 3.74911 26.0847 2.43048C24.2271 4.46266 23.1457 6.60925 22.8406 8.87025C22.5355 11.1312 22.6237 13.2897 23.105 15.3456C22.7362 15.6725 22.1083 15.7329 21.2214 15.5269C20.3345 15.3208 19.5928 14.8552 18.9963 14.1301C18.9963 14.7947 18.9963 15.4397 18.9963 16.0651C18.9963 16.6905 19.502 17.3019 20.5134 17.8992C19.5121 18.1073 18.8545 18.5536 18.5405 19.238C18.2266 19.9224 18.1818 20.4669 18.4062 20.8715C19.1455 20.3875 19.8102 20.1981 20.4 20.3032C20.9898 20.4083 20.8559 20.9947 19.9983 22.0625L20.0542 22.1362C18.1492 22.5345 16.5932 22.7354 15.3865 22.7387C13.5763 22.7438 13.5763 22.7438 11.4153 22.3854Z" sodipodi:nodetypes="czzzczzzzczzczccczccczczccccccccccccczccczccccczczczczczcczczczczczczczczcccc"/>
<path id="shape1" class="marking" transform="translate(27.4818750138139, 5.24666666666625)" fill="#77b3fe" fill-rule="evenodd" d="M3.26989 0C1.02152 3.21046 -0.0673652 5.96928 0.00322303 8.27647C0.0738113 10.5837 0.531328 12.5131 1.37577 14.0647C3.64244 13.1288 4.80845 11.5484 4.87381 9.32353C4.97185 5.98627 4.96793 5.96863 3.26989 0Z" sodipodi:nodetypes="czccc"/>
<path id="shape2" class="marking" transform="translate(35.7658382642969, 4.62901960784277)" fill="#77b3fe" fill-rule="evenodd" d="M4.31142 12.0373C5.01207 9.99281 4.98854 7.9817 4.24083 6.00392C3.49312 4.02614 2.33495 2.02484 0.766319 0C0.0944232 2.32288 -0.135642 4.26536 0.0761225 5.82745C0.287887 7.38954 0.766319 9.05621 1.51142 10.8275C1.54017 10.8863 2.47351 11.2895 4.31142 12.0373Z" sodipodi:nodetypes="czczcc"/>
<path id="shape3" class="marking" transform="translate(8.90470588235223, 23.9999999999981)" fill="#77b3fe" fill-rule="evenodd" d="M20.9882 21.6525L18.051 12.9643L18.5098 10.4349C17.4895 9.28938 16.777 5.10112 16.0627 0.93098C15.3297 2.56366 14.734 3.40941 14.2757 3.46824C13.8174 3.52706 12.9908 2.37098 11.7961 0C11.715 3.61412 11.2641 5.66105 10.4431 6.14078C9.62222 6.62052 7.8183 5.58784 5.03137 3.04275C6.1634 5.66889 6.16471 7.16824 5.03529 7.54078C3.90588 7.91333 2.22745 7.15255 0 5.25843C1.64706 9.09765 3.01176 11.7146 4.09412 13.1094C5.71765 15.2016 7.93333 17.7369 9.7098 18.2329C11.4863 18.729 11.4941 18.7388 20.9882 21.6525Z" sodipodi:nodetypes="cccczczczczcc"/>
<path id="shape4" class="marking" transform="translate(23.2071761151572, 16.7572549019594)" fill="#77b3fe" fill-rule="evenodd" d="M3.58086 5.07363C5.69486 5.31929 6.5027 5.28822 6.00439 4.98039C5.50609 4.67257 4.9221 3.85312 4.25243 2.52206C4.76797 3.05801 5.31776 3.52956 6.2191 3.3402L5.77988 2.50784C5.00668 1.84575 4.21975 1.55817 3.4191 1.6451C2.61844 1.73203 1.74302 1.18366 0.792824 0C0.359621 1.36993 0.359621 2.22092 0.792824 2.55294C1.22603 2.88497 1.7655 3.35425 2.41126 3.96078C0.743281 4.68784 -0.059333 5.4166 0.00341212 6.14706C0.0661572 6.87752 0.329294 7.24275 0.792824 7.24275L2.24655 6.34706C1.73413 6.87124 1.64393 7.76536 1.97596 9.02941C2.474 10.9255 4.3289 13.7373 5.05831 14.7765C5.54459 15.4693 6.16943 16.3497 6.93282 17.4176L7.82694 15.1706C7.92629 16.717 8.11322 17.702 8.38773 18.1255C8.66224 18.549 8.94982 19.534 9.25047 21.0804L10.0936 20.6157L9.92106 22.6667C11.3067 21.9935 12.2766 21.2497 12.8309 20.4353C13.3851 19.6209 13.959 18.5392 14.5524 17.1902L14.3877 18.9706C15.5694 17.9575 16.2296 17.0647 16.3681 16.2922C16.5067 15.5196 16.5851 14.6876 16.6034 13.7961L18.0975 11.5059L18.8465 11.6627C19.2988 10.8444 19.4688 10.1641 19.3564 9.62157C19.2439 9.07908 19.0034 8.28614 18.6348 7.24275L16.2103 10.6064C13.7652 11.4413 11.4681 11.4184 9.3191 10.5377C7.15431 9.73205 4.27689 8.83304 3.58086 5.07363Z" sodipodi:nodetypes="czccczczczcczzcczccczcczccczcccc"/>
<path id="shape5" class="marking" transform="translate(33.279411764703, 36.4299999999968)" fill="#77b3fe" fill-rule="evenodd" d="M0 3.02647L3.38824 0L4.97059 8.03824C3.36667 7.51667 2.28627 6.80098 1.72941 5.89118C0.894118 4.52647 0.882353 4.47059 0 3.02647Z" sodipodi:nodetypes="ccccc"/>
<path id="shape6" class="marking" transform="translate(4.78934457747119, 2.68588235294094)" fill="#77b3fe" fill-rule="evenodd" d="M5.30771 6.62941C4.8685 7.29412 4.9332 8.1902 5.50183 9.31765C6.07046 10.4451 6.35869 11.0539 6.36654 11.1441C4.93517 10.8912 4.11556 10.5167 3.90771 10.0206C3.69987 9.52451 3.39399 10.1392 2.99007 11.8647C2.10379 11.1706 1.64693 10.4147 1.61948 9.59706C1.59203 8.77941 1.32928 9.42745 0.831244 11.5412C0.352812 10.849 0.082224 10.1343 0.019479 9.39706C-0.0746387 8.29118 0.148891 5.52647 1.20771 4.21765C1.9136 3.3451 3.0234 1.93922 4.53713 0C3.72144 1.76667 3.44301 3.07745 3.70183 3.93235C4.09007 5.21471 4.09007 5.21471 5.30771 6.62941Z" sodipodi:nodetypes="czczczczzccc"/>

	<image width="48" height="48" href="/img/TinyBieskes_Skyfox_outline.png" />
</svg>
