<?xml version="1.0" standalone="no"?>
<!-- Created using Krita: https://krita.org -->
<svg xmlns="http://www.w3.org/2000/svg" 
    xmlns:xlink="http://www.w3.org/1999/xlink"
    xmlns:krita="http://krita.org/namespaces/svg/krita"
    xmlns:sodipodi="http://sodipodi.sourceforge.net/DTD/sodipodi-0.dtd"
    width="48pt"
    height="48pt"
    viewBox="0 0 48 48">
<defs/>
	<path id="body" transform="translate(2.45999981964821, 9.68999929763653)" fill="#ffffff" fill-rule="evenodd" d="M35.7 10.65C39.0896 7.24182 37.2378 3.70872 36.57 0C39.168 2.0905 40.7573 4.14068 40.8 6.87C40.7035 9.65839 39.1553 11.0804 37.62 12.27C38.0121 12.3256 38.6958 14.1225 39.12 17.85L41.94 21.87C42.3964 25.1264 42.4431 27.9731 41.94 30.27L39.18 30.57L39.54 28.29L38.52 26.73L37.5 29.61L36.06 29.67L35.7 25.59L33.12 23.37L31.62 31.05C30.6808 31.2708 29.7832 31.5332 28.38 31.29C29.1104 30.0366 29.5791 28.5542 29.04 26.19L28.5 23.91L26.52 25.11L25.56 29.37L23.52 32.49L20.82 32.13L21.54 27.51L22.26 24.75L19.68 24.75L18.72 28.29L16.26 31.95L13.98 31.77L14.64 27.99L12 31.23L9.78 31.05C10.684 29.11 11.244 27.69 11.46 26.79C11.436 25.794 11.196 24.054 10.74 21.57C10.052 20.1409 9.55196 19.0409 9.24 18.27C8.96261 17.5846 8.46261 16.2646 7.74 14.31L3.06 15.27L0 13.11L1.74 10.05L1.74 6.39C2.47326 4.24109 4.61708 2.56236 7.26 1.05C8.93831 0.888875 10.3297 0.536446 13.38 1.29C14.2783 2.31968 14.0523 2.72326 15.72 4.83C16.0867 6.19222 17.5827 7.99621 17.04 9.51C18.3 9.97 18.72 10.55 19.98 11.01C21.6806 12.006 25.5028 11.6518 30.72 10.41Z" sodipodi:nodetypes="cccccccccccccccccccccccccccccccccscccccccccccc"/>
	<path id="shape1" class="detail" transform="translate(2.81624996139182, 13.5705330730131)" fill="#77b3fe" fill-rule="evenodd" d="M3.30375 4.66947C1.14375 6.30947 0.04375 7.48947 0.00375 8.20947C-0.03625 8.92947 0.24375 9.66947 0.84375 10.4295C1.80375 11.3895 2.94375 11.6295 4.26375 11.1495C6.24375 10.4295 9.36375 9.40947 9.96375 7.54947C10.3637 6.30947 9.34375 5.38947 6.90375 4.78947C6.58375 2.82947 6.64375 1.38947 7.08375 0.469467C7.74375 -0.910533 5.22375 0.829467 5.22375 4.66947C5.16375 4.78947 4.74375 5.02947 3.30375 4.66947Z" sodipodi:nodetypes="czczzcccc"/>
	<path id="shape2" class="marking" transform="translate(12.2078306924093, 27.2594385284503)" fill="#77b3fe" fill-rule="evenodd" d="M5.07217 6.52056C3.43217 6.08056 2.07217 5.18056 0.992168 3.82056C-0.627832 1.78056 -0.0278316 -0.319441 1.11217 0.0405595C1.87217 0.280559 3.13217 1.20056 4.89217 2.80056C4.89217 2.80056 4.95217 4.04056 5.07217 6.52056Z" sodipodi:nodetypes="czzcc"/>
	<path id="shape3" class="marking" transform="translate(14.0361280032173, 31.9799976554273)" fill="#77b3fe" fill-rule="evenodd" d="M0.123871 0C-0.196129 2.72 0.103871 4.14 1.02387 4.26C1.94387 4.38 2.80387 3.54 3.60387 1.74C1.80387 1.54 0.643871 0.96 0.123871 0Z" sodipodi:nodetypes="czcc"/>
	<path id="shape4" class="marking" transform="translate(23.3239991345952, 38.7478096592538)" fill="#77b3fe" fill-rule="evenodd" d="M0.0159992 3.19219C-0.0639985 1.11219 0.156002 0.0521875 0.676001 0.0121875C1.456 -0.0478125 4.276 0.0721875 3.616 1.33219C3.176 2.17219 2.636 2.93219 1.996 3.61219C1.956 3.77219 1.296 3.63219 0.0159992 3.19219Z" sodipodi:nodetypes="czzcc"/>
	<path id="shape5" class="marking" transform="translate(38.3374971893354, 36.6599973123191)" fill="#77b3fe" fill-rule="evenodd" d="M0.1225 2.4C-0.1575 0.8 0.0425 0 0.7225 0C1.7425 0 2.8825 0.6 2.3425 1.38C1.8025 2.16 1.8025 2.16 0.1225 2.4Z" sodipodi:nodetypes="czcc"/>
	<path id="shape6" class="marking" transform="translate(22.4099996927797, 32.8499995496569)" fill="#77b3fe" fill-rule="evenodd" d="M0.18 0.135L2.16 0L2.07 1.71L0 1.71C0 1.71 0.06 1.185 0.18 0.135Z" sodipodi:nodetypes="ccccc"/>
	<path id="shape7" class="marking" transform="translate(29.1149996008603, 32.3099995570598)" fill="#77b3fe" fill-rule="evenodd" d="M0.045 0.405L1.485 0L1.71 1.35L0 2.385C0 2.385 0.015 1.725 0.045 0.405Z" sodipodi:nodetypes="ccccc"/>
	<path id="shape8" class="detail" transform="translate(38.8199994678138, 9.41999987086053)" fill="#77b3fe" fill-rule="evenodd" d="M0 0C0.96 2.2 1.4 3.84 1.32 4.92C1.24 6 1.2 6.54 1.2 6.54C3 7.7 3.96 7.68 4.08 6.48C4.26 4.68 4.26 4.68 0 0Z" sodipodi:nodetypes="czccc"/>
	
	<image width="48" height="48" href="/bieskes-compendium-app/img/TinyBieskes_Puppipede_outline.png" />
</svg>
