<?xml version="1.0" standalone="no"?>
<!DOCTYPE svg PUBLIC "-//W3C//DTD SVG 20010904//EN" "http://www.w3.org/TR/2001/REC-SVG-20010904/DTD/svg10.dtd">
<!-- Created using Krita: https://krita.org -->
<svg xmlns="http://www.w3.org/2000/svg" 
    xmlns:xlink="http://www.w3.org/1999/xlink"
    xmlns:krita="http://krita.org/namespaces/svg/krita"
    xmlns:sodipodi="http://sodipodi.sourceforge.net/DTD/sodipodi-0.dtd"
    width="48pt"
    height="48pt"
    viewBox="0 0 48 48">
<defs/>
	<path id="body" transform="translate(8.20518457186936, 7.02401451989874)" fill="#ffffff" fill-rule="evenodd" d="M9.50022 26.1394C10.2663 24.6072 11.0968 23.6767 11.9917 23.3479C13.3341 22.8547 18.734 22.1962 21.6476 23.2182C24.5611 24.2402 27.2204 26.7266 28.1102 28.8902C29 31.0537 29.0763 32.4749 27.5458 33.5757C26.0153 34.6766 16.8069 36.0113 13.451 35.9452C11.2138 35.9011 7.75956 35.5113 3.08842 34.7757C1.17658 32.369 0.171506 30.1775 0.0732023 28.2012C-0.0742538 25.2368 -0.0844231 17.3098 0.881668 13.8547C1.84776 10.3997 3.15961 5.54382 4.7562 3.80231C6.3528 2.0608 8.89031 -0.0645967 12.3426 0.00150428C15.7948 0.0676053 20.4628 1.01336 22.2526 3.07266C24.0424 5.13196 24.978 7.38193 24.4289 8.46752C24.0628 9.19124 22.4628 9.37429 19.6289 9.01666C15.7137 7.73871 13.2798 7.13109 12.3273 7.1938C10.8985 7.28787 7.89854 7.59549 7.22736 11.8844C6.55618 16.1734 5.08671 20.7089 6.7494 24.6775C8.4121 28.6461 7.85787 28.2266 10.146 28.8063C12.4341 29.3859 16.812 29.9961 19.7408 29.2792C21.6933 28.8012 22.695 28.3487 22.7458 27.9215C20.0913 26.3419 17.7743 25.6665 15.7948 25.8953C12.8256 26.2385 12.7036 26.1139 9.50022 26.1394Z" sodipodi:nodetypes="czzzzzczzzzzzczzzzzccc"/>
	<path id="shape1" class="marking" transform="translate(18.0816728636335, 36.079448310926)" fill="#77b3fe" fill-rule="evenodd" d="M0.615248 0C0.896601 0.57457 0.974566 1.57286 0.849144 2.99488C0.723721 4.4169 0.440673 5.70672 0 6.86433L5.91833 6.84145C6.43375 6.16858 6.69654 5.16689 6.70671 3.8364C6.71688 2.50591 6.45408 1.38558 5.91833 0.475419C6.18629 0.436436 4.4186 0.277963 0.615248 0Z" sodipodi:nodetypes="czcczcc"/>

	<image width="48" height="48" href="/bieskes-compendium-app/img/TinyBieskes_Wurmy_outline.png" />
</svg>
