<?xml version="1.0" standalone="no"?>
<!DOCTYPE svg PUBLIC "-//W3C//DTD SVG 20010904//EN" "http://www.w3.org/TR/2001/REC-SVG-20010904/DTD/svg10.dtd">
<!-- Created using Krita: https://krita.org -->
<svg xmlns="http://www.w3.org/2000/svg" 
    xmlns:xlink="http://www.w3.org/1999/xlink"
    xmlns:krita="http://krita.org/namespaces/svg/krita"
    xmlns:sodipodi="http://sodipodi.sourceforge.net/DTD/sodipodi-0.dtd"
    width="48pt"
    height="48pt"
    viewBox="0 0 48 48">
<defs/>
	<path id="body" transform="translate(8.63813070172909, 3.47386150570411)" fill="#ffffff" fill-rule="evenodd" d="M3.02666 6.21858C3.09785 5.20164 3.45886 4.13385 4.1097 3.01522C4.76054 1.89659 5.38596 0.891516 5.98595 0C6.69103 0.538977 7.21984 1.34151 7.57238 2.4076C7.92491 3.47369 8.08254 4.27029 8.04525 4.79741L9.46388 5.62875C10.0639 4.74741 10.7774 4.08979 11.6045 3.65589C12.4316 3.222 13.6841 2.74997 15.3619 2.23981C15.9719 5.7296 15.9719 7.90331 15.3619 8.76092C14.7519 9.61854 13.691 10.8821 12.1791 12.5516C11.8571 13.7329 12.152 14.8668 13.0638 15.9532C14.4316 17.5829 21.7688 24.0379 22.7909 25.515C23.8129 26.9921 25.9027 29.2395 26.5129 32.7378C27.123 36.2361 27.6518 37.8149 29.1366 37.792C30.6213 37.7691 31.8213 37.3928 31.7603 36.1115C31.6992 34.8301 30.5806 32.0234 29.0908 29.4022C27.601 26.7811 21.54 20.11 20.5943 17.471C19.6485 14.832 18.6265 9.59736 19.8926 7.56348C21.1587 5.5296 23.3553 2.31353 25.679 2.88048C28.0027 3.44742 29.4162 4.41097 29.6603 5.97706C29.9043 7.54314 25.2976 11.4736 25.5925 14.832C25.8874 18.1905 30.0416 23.2574 31.267 25.9345C32.4925 28.6116 34.9229 33.0505 34.1653 36.0378C33.4077 39.025 29.7162 40.5097 27.5044 40.797C25.2925 41.0843 21.0316 41.3741 18.8706 41.275C17.4299 41.2089 13.991 41.2758 8.55372 41.4758C8.15034 40.8979 8.34525 40.3614 9.13846 39.8665C9.93167 39.3716 11.3198 39.2682 13.3028 39.5564C12.0859 36.8971 11.4639 35.2064 11.4367 34.4844C11.3961 33.4013 9.34693 39.3937 7.83678 39.8691C6.83001 40.186 5.66053 40.2369 4.32834 40.0216C4.2097 38.9437 4.408 38.3784 4.92325 38.3259C5.4385 38.2733 5.9046 38.5504 6.32154 39.1572C7.41983 38.4267 8.07407 36.9911 8.28423 34.8505C8.59948 31.6395 7.13509 28.5073 7.3334 26.4887C7.4656 25.143 7.56729 23.1554 7.63848 20.5261C7.03509 18.6267 6.08934 17.2371 4.80122 16.3575C2.86904 15.038 -0.0699164 13.7693 0.0012693 12.6151C0.0487264 11.8456 0.467366 10.9736 1.25719 9.99905C0.931768 8.96685 0.914819 8.35839 1.20634 8.17364C1.64362 7.89653 2.07582 6.93298 2.78768 7.15162C3.49954 7.37026 3.49954 7.37026 3.02666 6.21858Z" sodipodi:nodetypes="czczcczczczzzzzzzzzzzzzzzczczzczczzczzczcc"/>
	<path id="shape1" class="marking" transform="translate(14.7737505707168, 12.0267370049036)" fill="#77b3fe" fill-rule="evenodd" d="M1.1571 0.624993C2.32997 0.124999 3.13165 -0.0749992 3.56216 0.0249997C4.14181 0.508045 4.36045 1.08177 4.21808 1.74617C4.00453 2.74277 3.20114 3.52835 1.92489 3.13937C0.648628 2.75039 -0.231023 2.47328 0.0537195 1.96989C0.338462 1.46651 0.338462 1.46651 1.1571 0.624993Z" sodipodi:nodetypes="cczzcc"/>
	<path id="shape2" class="marking" transform="translate(9.75370953318249, 10.7725900348027)" fill="#77b3fe" fill-rule="evenodd" d="M1.58566 0.11221C1.95176 0.0893288 2.39921 -0.414056 2.71446 0.915591C3.02971 2.24524 3.13141 3.47319 1.79922 3.2037C0.46703 2.93421 -0.224488 2.33676 0.065339 1.53084C0.355166 0.724915 0.360251 0.704577 1.58566 0.11221Z" sodipodi:nodetypes="czzcc"/>
	<path id="shape3" class="marking" transform="translate(16.4403058505426, 22.5236597069928)" fill="#77b3fe" fill-rule="evenodd" d="M0.090536 5.87282C-0.272172 6.32536 0.454939 7.20247 2.27187 8.50415C4.0888 9.80583 5.22269 10.3075 5.67353 10.0092C5.68031 7.49789 5.41251 5.44791 4.87015 3.85928C4.32778 2.27065 3.73118 0.984227 3.08033 0C3.10406 0.0118643 2.10746 1.96947 0.090536 5.87282Z" sodipodi:nodetypes="czczcc"/>
	<path id="shape4" class="marking" transform="translate(23.9999999999981, 20.6719073661568)" fill="#77b3fe" fill-rule="evenodd" d="M0 0.850068C0.912024 0.412785 2.22904 0.146686 3.95106 0.0517714C5.67308 -0.0431428 6.32392 -0.00755 5.90358 0.15855C6.79171 0.977863 7.40696 2.03438 7.74932 3.32809C8.09169 4.62181 8.23746 5.66019 8.18661 6.44323L4.22055 5.26867C4.14597 5.01782 2.73912 3.54495 0 0.850068Z" sodipodi:nodetypes="czczccc"/>
	<path id="shape5" class="marking" transform="translate(28.2154638192369, 6.2856447240764)" fill="#77b3fe" fill-rule="evenodd" d="M0 5.63897C0.305082 4.22882 1.14745 3.01104 2.52709 1.98562C4.59656 0.447504 5.94909 -0.653332 7.81009 0.44242C9.67108 1.53817 10.7867 3.16585 9.70159 5.15339C8.97817 6.47841 8.08326 7.8928 7.01687 9.39656C5.24062 10.0118 3.64403 9.87113 2.2271 8.97453C0.101694 7.62963 1.4288 7.43896 0 5.63897Z" sodipodi:nodetypes="czzzccc"/>
	<path id="shape6" class="marking" transform="translate(17.3952394572077, 42.9553646984598)" fill="#77b3fe" fill-rule="evenodd" d="M1.04236 0.0646881C1.69659 -0.133615 2.13896 0.124009 2.36947 0.837561C2.59997 1.55111 2.66777 2.01128 2.57285 2.21806L0.188134 2.10111L0 1.18078C0.0644061 1.12654 0.41186 0.754511 1.04236 0.0646881Z" sodipodi:nodetypes="czcccc"/>
	<path id="shape7" class="marking" transform="translate(19.8374972611224, 5.64756729271891)" fill="#77b3fe" fill-rule="evenodd" d="M0.211951 5.59316C-0.235502 4.46097 0.0255127 3.39149 0.994994 2.38472C1.96448 1.37795 3.02031 0.583045 4.1625 0C4.1625 1.22541 4.1625 2.60845 4.1625 4.14911C4.1625 5.68977 3.17955 7.61856 1.21364 9.93549L0.832284 7.77195C1.60177 7.62789 1.9899 7.35755 1.99668 6.96094C2.00346 6.56434 1.91193 5.70757 1.7221 4.39063C1.70177 4.38046 1.19838 4.78131 0.211951 5.59316Z" sodipodi:nodetypes="czczcczcc"/>

	<image width="48" height="48" href="/bieskes-compendium-app/img/TinyBieskes_Purragonfly_outline.png" />
</svg>
