<?xml version="1.0" standalone="no"?>
<!DOCTYPE svg PUBLIC "-//W3C//DTD SVG 20010904//EN" "http://www.w3.org/TR/2001/REC-SVG-20010904/DTD/svg10.dtd">
<!-- Created using Krita: https://krita.org -->
<svg xmlns="http://www.w3.org/2000/svg" 
    xmlns:xlink="http://www.w3.org/1999/xlink"
    xmlns:krita="http://krita.org/namespaces/svg/krita"
    xmlns:sodipodi="http://sodipodi.sourceforge.net/DTD/sodipodi-0.dtd"
    width="48pt"
    height="48pt"
    viewBox="0 0 48 48">
<defs/>
	<path id="body" transform="translate(11.1808080032054, 6.40814454484583)" fill="#ffffff" fill-rule="evenodd" d="M5.57376 11.6995L5.08563 12.9986L7.01273 17.5919C5.45342 19.1313 4.72631 20.5748 4.8314 21.9222C4.98902 23.9434 2.09075 27.0832 2.12634 30.4772C2.15007 32.7399 2.55684 34.2907 3.34667 35.1297C1.66872 34.8857 0.680592 35.0551 0.38229 35.6382C0.0839879 36.2212 -0.0397396 36.7043 0.0111073 37.0873L11.5025 37.1687C12.2889 37.5127 13.2025 37.6619 14.2432 37.6161C15.2838 37.5704 15.8703 37.1704 16.0025 36.4161L26.7057 36.9933C26.9803 35.4492 26.3379 34.5763 24.7786 34.3746C23.2193 34.173 23.2465 33.723 24.86 33.0247C25.9718 32.0128 26.5379 30.8433 26.5583 29.5162C26.5888 27.5256 25.2058 26.6942 25.1956 23.9256C25.1854 21.157 26.9346 13.2833 25.5464 8.1834C24.1583 3.08345 18.438 -0.618206 14.8381 0.0860239C11.2381 0.790254 8.17712 2.32329 7.12459 3.25379C6.07206 4.18429 4.92292 6.16223 4.93817 8.31306C4.98394 10.2046 4.72462 9.82829 5.57376 11.6995Z" sodipodi:nodetypes="ccczzczcczcczczzzzzcc"/>
	<path id="shape1" class="marking" transform="translate(22.5383891764714, 12.6660091353762)" fill="#77b3fe" fill-rule="evenodd" d="M1.46161 0.382327C3.52956 -0.32953 5.06352 -0.0473292 6.06351 1.22893C7.5635 3.14331 4.97073 2.77225 3.93811 3.02637C2.90549 3.28049 0.491149 4.11572 0.0839136 2.8662C-0.175406 1.69164 0.134506 1.85943 1.46161 0.382327Z" sodipodi:nodetypes="czzcc"/>
	<path id="shape2" class="marking" transform="translate(15.7952105981457, 9.43057806590956)" fill="#77b3fe" fill-rule="evenodd" d="M2.41866 0C2.83222 0.238981 2.91527 1.02796 2.66781 2.36692C2.42036 3.70589 2.46782 5.56096 2.81019 7.93212C8.81012 6.35925 12.488 5.63384 13.844 5.75587C15.1999 5.8779 16.5372 6.15163 17.8558 6.57705L17.1134 12.427L15.0999 12.066C14.3507 9.92362 13.6846 8.82872 13.1016 8.78126C12.227 8.71008 10.4271 9.36854 10.4118 10.0143C10.4016 10.4448 10.3338 11.3753 10.2084 12.8058L6.92879 13.477C6.64743 16.1058 5.58643 17.7837 3.74577 18.5108C0.984781 19.6015 -0.052496 19.8227 0.166146 18.6888C0.384787 17.5549 1.49325 15.3695 2.59663 14.5694C3.33221 14.036 2.72544 12.699 0.776309 10.5584L0.654276 8.51177C0.186485 7.23043 -0.0304623 6.02367 0.0034356 4.89147C0.0542825 3.19319 0.00852029 3.16776 2.41866 0Z" sodipodi:nodetypes="czczccczzcczzzcccc"/>
	<path id="shape3" class="marking" transform="translate(30.9217679244157, 7.97127149076747)" fill="#77b3fe" fill-rule="evenodd" d="M1.42755 0C0.61061 0.871177 0.522475 1.89235 1.16315 3.06353C2.12415 4.82029 3.25295 6.29739 2.63771 10.388C2.02246 14.4787 -0.692766 21.404 0.166547 25.1718C1.02586 28.9395 1.44789 30.3607 3.4055 31.0776C5.3631 31.7946 6.858 30.9912 6.97495 30.2285C7.0919 29.4658 6.86817 26.3641 6.08004 24.3277C5.29192 22.2913 6.47665 14.5829 6.5275 13.1516C6.57834 11.7202 6.12072 5.07198 5.08344 3.59488C4.04617 2.11777 3.98515 2.09998 1.42755 0Z" sodipodi:nodetypes="czzzzzzzcc"/>
	<path id="shape4" class="marking" transform="translate(13.1474645557422, 32.4972828677636)" fill="#77b3fe" fill-rule="evenodd" d="M1.42069 0C2.61389 1.05253 2.97491 2.44065 2.50373 4.16436C2.03254 5.88807 1.26137 6.87705 0.190191 7.13128C-0.0470949 5.41265 -0.0623489 4.19063 0.144429 3.46522C0.454595 2.37709 0.454595 2.37709 1.42069 0Z" sodipodi:nodetypes="czccc"/>
	<path id="shape5" class="marking" transform="translate(31.7819455072092, 40.5463501445927)" fill="#77b3fe" fill-rule="evenodd" d="M2.59616 0C1.0911 0.869482 0.233478 1.63134 0.0233108 2.28557C-0.29194 3.26691 2.67244 2.09489 3.95378 2.50167C4.80801 2.77285 5.6063 2.88133 6.34867 2.82709C6.72832 1.65422 6.43172 0.909312 5.45885 0.592367C3.99954 0.116948 3.96395 0.101694 2.59616 0Z" sodipodi:nodetypes="czzccc"/>

	<image width="48" height="48" href="/bieskes-compendium-app/img/TinyBieskes_Earmuff_outline.png" />
</svg>
